<svg width="134" height="113" viewBox="0 0 134 113" fill="none" xmlns="http://www.w3.org/2000/svg">
<path d="M99.1152 113C93.3797 113 88.3119 112.251 83.9121 110.754C79.5122 109.336 76.0158 107.09 73.423 104.017C70.9088 100.944 69.6517 96.9641 69.6517 92.0785V38.6517C69.6517 32.978 69.1017 27.265 68.0018 21.5126C66.9018 15.7601 64.7411 10.9533 61.5198 7.09206C58.2984 3.23083 53.545 1.3002 47.2595 1.3002C43.6453 1.3002 39.6382 1.73361 35.2384 2.60042C30.917 3.46722 26.7529 4.88564 22.7458 6.85565C18.8174 8.74687 15.5567 11.2685 12.9639 14.4205C10.3712 17.4937 9.07476 21.3156 9.07476 25.886H8.48549C8.48549 20.5276 10.5676 16.1541 14.7318 12.7657C18.9745 9.37727 23.9636 7.68305 29.6992 7.68305C35.6705 7.68305 40.8168 9.21966 45.1381 12.2929C49.538 15.2873 51.7379 19.6607 51.7379 25.4132C51.7379 31.402 49.4987 36.0119 45.0202 39.2427C40.6203 42.4735 35.5133 44.0889 29.6992 44.0889C23.4922 44.0889 18.3459 42.4341 14.2603 39.1245C10.2533 35.8149 8.24978 31.402 8.24978 25.886C8.24978 21.0792 9.58546 17.0603 12.2568 13.8295C14.9282 10.5199 18.4638 7.84065 22.8637 5.79184C27.2636 3.74302 32.1349 2.28522 37.4776 1.41842C42.8989 0.472809 48.2809 0 53.6236 0C66.1947 0 76.4872 1.61542 84.5013 4.84624C92.594 7.99827 98.5652 12.4899 102.415 18.3211C106.265 24.0736 108.19 30.8504 108.19 38.6517V99.4069C108.19 101.929 108.858 104.056 110.194 105.79C111.608 107.523 113.808 108.39 116.793 108.39C118.836 108.39 121.547 107.445 124.925 105.553C128.304 103.583 131.093 100.274 133.293 95.6245L134 95.8609C131.486 101.535 127.086 105.829 120.8 108.745C114.593 111.582 107.365 113 99.1152 113ZM33.5884 113C23.3744 113 15.2032 110.4 9.07476 105.199C3.02492 99.9191 0 92.7877 0 83.8044C0 73.2451 4.55702 65.1287 13.6711 59.455C22.7851 53.7814 35.7098 50.9446 52.445 50.9446H80.6121V51.772H64.2304C58.7306 51.772 54.2914 53.348 50.9129 56.5C47.613 59.652 45.1774 63.4344 43.606 67.8473C42.1132 72.2601 41.3668 76.3183 41.3668 80.022C41.3668 83.7256 41.7203 87.1534 42.4274 90.3054C43.2131 93.3787 44.4702 95.9003 46.1988 97.8703C48.0059 99.7615 50.3629 100.707 53.27 100.707C56.3342 100.707 59.0841 99.5251 61.5198 97.1611C64.034 94.7183 65.9982 91.0934 67.4125 86.2866C68.9053 81.401 69.6517 75.2939 69.6517 67.9655H70.3588C70.3588 77.5003 68.9446 85.6562 66.1161 92.4331C63.2876 99.1311 59.1627 104.253 53.7414 107.799C48.3201 111.266 41.6025 113 33.5884 113Z" fill="#CCFF00"/>
</svg>
