<svg width="437" height="115" viewBox="0 0 437 115" fill="none" xmlns="http://www.w3.org/2000/svg">
<path d="M328.328 76.5776V28.2866H354.584V113.147H329.579V97.5193H328.641C324.89 107.678 315.513 114.241 302.698 114.241C285.351 114.241 273.63 101.739 273.63 82.36V28.2866H300.041V77.359C300.041 86.5796 305.199 92.362 313.638 92.362C321.765 92.362 328.328 86.7359 328.328 76.5776Z" fill="#CCFF00"/>
<path d="M210.367 64.5437V113.147H183.956V28.2864H208.961V43.7582H209.899C213.806 33.4436 223.182 27.1924 235.685 27.1924C253.501 27.1924 265.222 39.8512 265.066 59.0738V113.147H238.811V64.0748C238.811 54.5416 233.653 48.7592 224.902 48.7592C216.15 48.7592 210.367 54.6979 210.367 64.5437Z" fill="#CCFF00"/>
<path d="M120.38 64.5443V113.148H93.9685V0H119.442V43.7588H120.38C124.287 33.4442 133.195 27.193 145.854 27.193C163.67 27.193 175.391 39.6955 175.391 59.0744V113.148H148.98V64.0754C149.136 54.5422 143.979 48.7598 135.071 48.7598C126.319 48.7598 120.38 54.6985 120.38 64.5443Z" fill="#CCFF00"/>
<path d="M74.0229 113.145C69.7394 113.145 65.9546 112.588 62.6686 111.473C59.3826 110.416 56.7714 108.744 54.8351 106.456C52.9573 104.167 52.0185 101.204 52.0185 97.5658V57.7818C52.0185 53.5569 51.6077 49.3028 50.7862 45.0192C49.9647 40.7357 48.3511 37.1563 45.9453 34.2811C43.5394 31.4058 39.9894 29.9682 35.2951 29.9682C32.5959 29.9682 29.6033 30.2909 26.3173 30.9364C23.09 31.5819 19.98 32.6381 16.9874 34.105C14.0535 35.5133 11.6183 37.391 9.68195 39.7382C7.74556 42.0266 6.77737 44.8725 6.77737 48.2759H6.33728C6.33728 44.2858 7.89226 41.0291 11.0022 38.5059C14.1709 35.9827 17.8969 34.7211 22.1805 34.7211C26.64 34.7211 30.4835 35.8654 33.7108 38.1538C36.9968 40.3836 38.6398 43.6403 38.6398 47.9238C38.6398 52.3834 36.9675 55.8161 33.6228 58.2219C30.3368 60.6277 26.5227 61.8306 22.1805 61.8306C17.5449 61.8306 13.7014 60.5984 10.6501 58.1339C7.65754 55.6694 6.16124 52.3834 6.16124 48.2759C6.16124 44.6965 7.15878 41.7039 9.15385 39.2981C11.1489 36.8336 13.7894 34.8385 17.0754 33.3129C20.3614 31.7872 23.9995 30.7017 27.9896 30.0562C32.0385 29.3521 36.0579 29 40.0481 29C49.4366 29 57.1235 30.2029 63.1087 32.6087C69.1526 34.9559 73.6122 38.3005 76.4874 42.6428C79.3627 46.9263 80.8003 51.9726 80.8003 57.7818V103.023C80.8003 104.901 81.2991 106.485 82.2966 107.776C83.3528 109.067 84.9958 109.712 87.2256 109.712C88.7512 109.712 90.7756 109.008 93.2988 107.6C95.822 106.133 97.9051 103.668 99.5481 100.206L100.076 100.382C98.1985 104.607 94.9125 107.805 90.2182 109.976C85.5826 112.089 80.1842 113.145 74.0229 113.145ZM25.0851 113.145C17.4569 113.145 11.3543 111.209 6.77737 107.336C2.25912 103.404 0 98.0939 0 91.4046C0 83.5417 3.40335 77.4978 10.2101 73.2729C17.0168 69.0481 26.6694 66.9356 39.1679 66.9356H60.2041V67.5518H47.9697C43.8622 67.5518 40.5468 68.7253 38.0237 71.0725C35.5592 73.4196 33.7401 76.2362 32.5666 79.5222C31.4517 82.8082 30.8942 85.8301 30.8942 88.588C30.8942 91.3459 31.1583 93.8984 31.6864 96.2456C32.2732 98.534 33.212 100.412 34.503 101.879C35.8526 103.287 37.6129 103.991 39.784 103.991C42.0725 103.991 44.1262 103.111 45.9453 101.351C47.823 99.5316 49.2899 96.8323 50.3462 93.253C51.461 89.6149 52.0185 85.0673 52.0185 79.6102H52.5466C52.5466 86.7103 51.4904 92.7835 49.378 97.8299C47.2655 102.818 44.1849 106.632 40.1361 109.272C36.0873 111.854 31.0703 113.145 25.0851 113.145Z" fill="#CCFF00"/>
<path d="M397.273 113.497C388.706 113.497 381.078 111.913 374.388 108.744C367.758 105.517 362.535 100.764 358.721 94.4852C354.907 88.2066 353 80.461 353 71.2485C353 62.036 354.848 54.2904 358.545 48.0118C362.301 41.7332 367.464 37.0096 374.036 33.841C380.608 30.6137 388.178 29 396.745 29C405.488 29 412.793 30.7604 418.661 34.2811C424.529 37.7431 428.93 42.2907 431.864 47.9238C434.856 53.557 436.353 59.5715 436.353 65.9675H364.794V65.4393H406.779C406.72 61.3319 406.573 57.195 406.339 53.0288C406.163 48.8627 405.752 44.9899 405.107 41.4105C404.52 37.8311 403.552 34.9852 402.202 32.8728C400.852 30.7017 399.033 29.6161 396.745 29.6161C394.339 29.6161 392.315 30.7017 390.672 32.8728C389.087 34.9852 387.826 37.8898 386.887 41.5865C386.007 45.2833 385.361 49.4788 384.95 54.1731C384.598 58.8087 384.422 63.6496 384.422 68.696C384.422 74.6812 384.657 80.285 385.126 85.5074C385.655 90.7298 386.593 95.3067 387.943 99.2382C389.293 103.17 391.17 106.25 393.576 108.48C396.041 110.71 399.18 111.825 402.994 111.825C411.033 111.825 417.986 109.448 423.854 104.695C429.722 99.9423 433.742 93.9278 435.913 86.6516H436.529C434.24 94.2211 429.898 100.588 423.502 105.751C417.106 110.915 408.363 113.497 397.273 113.497Z" fill="#CCFF00"/>
</svg>
