<svg width="112" height="114" viewBox="0 0 112 114" fill="none" xmlns="http://www.w3.org/2000/svg">
<path d="M59.3635 114C47.8764 114 37.648 111.862 28.6786 107.587C19.7878 103.233 12.7854 96.8208 7.67123 88.35C2.55708 79.8792 0 69.4292 0 57C0 44.5708 2.4784 34.1208 7.43519 25.65C12.4707 17.1792 19.3945 10.8063 28.2065 6.53125C37.0186 2.17709 47.1682 0 58.6554 0C70.3786 0 80.1742 2.37501 88.0421 7.12501C95.9101 11.7958 101.811 17.9313 105.745 25.5313C109.758 33.1313 111.764 41.2458 111.764 49.875H15.8145V49.1625H72.1096C72.0309 43.6208 71.8342 38.0396 71.5195 32.4187C71.2835 26.7979 70.7327 21.5729 69.8672 16.7438C69.0804 11.9146 67.7822 8.07501 65.9726 5.22501C64.163 2.29585 61.7239 0.831255 58.6554 0.831255C55.4296 0.831255 52.7151 2.29585 50.5121 5.22501C48.3878 8.07501 46.6962 11.9938 45.4373 16.9813C44.2571 21.9688 43.3916 27.6292 42.8409 33.9625C42.3688 40.2167 42.1328 46.7479 42.1328 53.5562C42.1328 61.6312 42.4475 69.1917 43.0769 76.2375C43.785 83.2833 45.0439 89.4583 46.8535 94.7625C48.6632 100.067 51.1809 104.223 54.4067 107.231C57.7113 110.24 61.9206 111.744 67.0348 111.744C77.8138 111.744 87.1373 108.537 95.0053 102.125C102.873 95.7125 108.263 87.5979 111.174 77.7812H112C108.932 87.9937 103.109 96.5833 94.5332 103.55C85.9571 110.517 74.2339 114 59.3635 114Z" fill="#CCFF00"/>
</svg>
